<?xml version="1.0" encoding="UTF-8" standalone="no"?>
<svg
   viewBox="0 0 44 44"
   version="1.1"
   id="svg180"
   sodipodi:docname="logo.svg"
   width="44"
   height="44"
   inkscape:version="1.2.1 (1:1.2.1+202210291244+9c6d41e410)"
   xmlns:inkscape="http://www.inkscape.org/namespaces/inkscape"
   xmlns:sodipodi="http://sodipodi.sourceforge.net/DTD/sodipodi-0.dtd"
   xmlns="http://www.w3.org/2000/svg"
   xmlns:svg="http://www.w3.org/2000/svg">
  <defs
     id="defs184" />
  <sodipodi:namedview
     id="namedview182"
     pagecolor="#ffffff"
     bordercolor="#000000"
     borderopacity="0.25"
     inkscape:showpageshadow="2"
     inkscape:pageopacity="0.0"
     inkscape:pagecheckerboard="0"
     inkscape:deskcolor="#d1d1d1"
     showgrid="false"
     inkscape:zoom="4.6777778"
     inkscape:cx="22.125891"
     inkscape:cy="22.019002"
     inkscape:window-width="1920"
     inkscape:window-height="1019"
     inkscape:window-x="0"
     inkscape:window-y="0"
     inkscape:window-maximized="1"
     inkscape:current-layer="svg180" />
  <path
     d="M 3.8825744,12.980643 A 20.238328,20.238328 0 1 1 3.7058213,13.344774 Z"
     id="circle1"
     style="display:inline;fill:#4d4d4d;stroke-width:0.404765" />
  <path
     sodipodi:type="star"
     style="fill:#999999"
     id="path708"
     inkscape:flatsided="true"
     sodipodi:sides="8"
     sodipodi:cx="227.38242"
     sodipodi:cy="230.63895"
     sodipodi:r1="40.364193"
     sodipodi:r2="34.956417"
     sodipodi:arg1="0.82739586"
     sodipodi:arg2="1.2200949"
     inkscape:rounded="0"
     inkscape:randomized="0"
     d="m 254.70071,260.35391 -29.013,10.61364 -28.02026,-13.01031 -10.61364,-29.013 13.01032,-28.02026 29.01299,-10.61363 28.02026,13.01031 10.61364,29.01299 z"
     transform="matrix(0.40476658,0,0,0.40476658,-70.036803,-71.354938)" />
  <path
     sodipodi:type="star"
     style="fill:#ffff00"
     id="path695"
     inkscape:flatsided="false"
     sodipodi:sides="100"
     sodipodi:cx="263.00238"
     sodipodi:cy="267.40619"
     sodipodi:r1="21.374517"
     sodipodi:r2="10.687258"
     sodipodi:arg1="0.97952667"
     sodipodi:arg2="1.0109426"
     inkscape:rounded="0"
     inkscape:randomized="0"
     d="m 274.91687,285.15203 -6.23889,-8.69018 5.10111,9.40328 -5.68092,-9.06477 4.50061,9.70502 -5.10053,-9.40359 3.88234,9.96847 -4.5,-9.70531 3.24875,10.19258 -3.88172,-9.96871 2.60235,10.37645 -3.24813,-10.19278 1.94567,10.51938 -2.6017,-10.37661 1.28131,10.62079 -1.94502,-10.5195 0.6119,10.68029 -1.28065,-10.62087 -0.0599,10.69763 -0.61124,-10.68032 -0.73152,10.67276 0.0606,-10.69763 -1.40022,10.60577 0.73218,-10.67272 -2.06341,10.49692 1.40089,-10.60568 -2.71844,10.34664 2.06405,-10.49679 -3.36275,10.15554 2.71908,-10.34648 -3.99378,9.92435 3.36338,-10.15533 -4.60906,9.65399 3.9944,-9.9241 -5.20614,9.34554 4.60965,-9.65371 -5.78268,9.0002 5.20672,-9.34521 -6.33639,8.61934 5.78323,-8.99984 -6.8651,8.20447 6.33693,-8.61895 -7.36672,7.75721 6.86561,-8.20404 -7.83926,7.27935 7.3672,-7.75676 -8.28087,6.77275 7.83971,-7.27886 -8.68979,6.23943 8.28129,-6.77224 -9.06442,5.68148 8.69018,-6.23889 -9.40328,5.10111 9.06477,-5.68092 -9.70502,4.5006 9.40359,-5.10052 -9.96847,3.88234 9.70531,-4.5 -10.19258,3.24875 9.96871,-3.88172 -10.37645,2.60234 10.19278,-3.24812 -10.51938,1.94567 10.37661,-2.6017 -10.62079,1.28131 10.5195,-1.94502 -10.68029,0.6119 10.62087,-1.28065 -10.69763,-0.0599 10.68032,-0.61124 -10.67276,-0.73152 10.69763,0.0606 -10.60577,-1.40023 10.67272,0.73219 -10.49692,-2.06341 10.60568,1.40088 -10.34664,-2.71843 10.49679,2.06405 -10.15554,-3.36275 10.34648,2.71908 -9.92435,-3.99378 10.15533,3.36338 -9.65399,-4.60906 9.9241,3.9944 -9.34554,-5.20614 9.65371,4.60965 -9.0002,-5.78268 9.34521,5.20672 -8.61934,-6.33639 8.99984,5.78323 -8.20447,-6.8651 8.61895,6.33693 -7.75721,-7.36672 8.20404,6.86561 -7.27935,-7.83926 7.75676,7.3672 -6.77275,-8.28087 7.27886,7.83971 -6.23943,-8.68979 6.77224,8.28129 -5.68148,-9.06442 6.23889,8.69017 -5.10111,-9.40327 5.68092,9.06477 -4.50061,-9.70502 5.10053,9.40359 -3.88234,-9.96847 4.5,9.7053 -3.24875,-10.19257 3.88172,9.96871 -2.60235,-10.37645 3.24813,10.19277 -1.94567,-10.51937 2.6017,10.37661 -1.28131,-10.62079 1.94502,10.5195 -0.6119,-10.68029 1.28065,10.62087 0.0599,-10.69763 0.61124,10.68032 0.73152,-10.67276 -0.0606,10.69763 1.40022,-10.60577 -0.73218,10.67272 2.06341,-10.49692 -1.40088,10.60568 2.71843,-10.34665 -2.06405,10.4968 3.36275,-10.15554 -2.71908,10.34648 3.99378,-9.92435 -3.36338,10.15533 4.60906,-9.654 -3.9944,9.9241 5.20614,-9.34553 -4.60965,9.6537 5.78268,-9.0002 -5.20672,9.34522 6.33639,-8.61934 -5.78323,8.99984 6.8651,-8.20447 -6.33693,8.61895 7.36672,-7.75722 -6.86561,8.20405 7.83926,-7.27935 -7.3672,7.75676 8.28087,-6.77275 -7.83971,7.27886 8.68979,-6.23943 -8.28129,6.77224 9.06442,-5.68148 -8.69018,6.23889 9.40328,-5.10111 -9.06477,5.68092 9.70502,-4.50061 -9.40359,5.10053 9.96847,-3.88234 -9.70531,4.5 10.19258,-3.24875 -9.96871,3.88172 10.37645,-2.60235 -10.19277,3.24813 10.51937,-1.94567 -10.37661,2.6017 10.62079,-1.28131 -10.5195,1.94502 10.68029,-0.6119 -10.62087,1.28065 10.69763,0.0599 -10.68032,0.61124 10.67276,0.73152 -10.69763,-0.0606 10.60577,1.40022 -10.67272,-0.73218 10.49692,2.06341 -10.60568,-1.40089 10.34664,2.71844 -10.49679,-2.06405 10.15554,3.36274 -10.34648,-2.71908 9.92435,3.99379 -10.15533,-3.36338 9.65399,4.60906 -9.9241,-3.9944 9.34554,5.20614 -9.6537,-4.60965 9.00019,5.78268 -9.34521,-5.20672 8.61934,6.33639 -8.99984,-5.78323 8.20447,6.8651 -8.61895,-6.33693 7.75722,7.36672 -8.20405,-6.86561 7.27935,7.83926 -7.75676,-7.3672 6.77275,8.28087 -7.27886,-7.83971 6.23943,8.68979 -6.77224,-8.28129 z"
     transform="matrix(0.40476658,0,0,0.40476658,-84.454574,-86.237089)" />
</svg>
