<svg width="87" height="22" viewBox="0 0 87 22" fill="none" xmlns="http://www.w3.org/2000/svg">
<path d="M7.6015 3.72594H20.4967L20.6803 2.90675C20.9486 1.63559 19.9882 0.435059 18.6888 0.435059H6.16086C4.53661 0.435059 3.13833 1.56497 2.78523 3.14685L0.045188 15.8019C-0.223167 17.0731 0.73726 18.2736 2.03666 18.2736H2.79936L5.5959 5.33607C5.80776 4.40389 6.64107 3.72594 7.6015 3.72594Z" fill="#00CDFA"/>
<path d="M21.2587 3.72656H20.496L17.6994 16.6641C17.5017 17.5963 16.6684 18.2742 15.708 18.2742H2.81278L2.62917 19.0934C2.36082 20.3646 3.32124 21.5651 4.62065 21.5651H17.1486C18.7728 21.5651 20.1711 20.4352 20.5242 18.8533L23.2643 6.21238C23.5326 4.9271 22.5581 3.72656 21.2587 3.72656Z" fill="url(#paint0_linear_1097_425)"/>
<path d="M17.6991 16.6641L20.4957 3.72656H7.60052C6.64009 3.72656 5.80678 4.39039 5.60904 5.33669L2.8125 18.2742H15.7077C16.6681 18.2742 17.4873 17.5963 17.6991 16.6641Z" fill="#3A00FF"/>
<path d="M7.00934 13.3372L6.07617 8.48584H7.53954L7.99022 11.5133L9.4695 8.48584H10.4557L11.0336 11.5133L12.3909 8.48584H13.8543L11.4843 13.3372H10.2595L9.67628 10.4953L8.25002 13.3372H7.00934Z" fill="white"/>
<path d="M13.3398 12.5523L14.1033 11.6668C14.448 12.091 14.8828 12.3084 15.4183 12.3084C15.7629 12.3084 16.0651 12.1652 16.1128 11.9266C16.1287 11.7835 16.0333 11.6615 15.8106 11.5555C15.7576 11.529 15.6409 11.4865 15.4554 11.4229C15.0895 11.2798 14.9305 11.2267 14.6123 11.0253C14.167 10.7496 13.9549 10.3678 14.0291 9.71037C14.1723 8.81432 14.9941 8.31592 16.0333 8.31592C16.7438 8.31592 17.327 8.5492 17.7989 9.01048L17.046 9.89063C16.7332 9.59902 16.3726 9.45586 15.9644 9.45586C15.6356 9.45586 15.4395 9.5513 15.3971 9.75808C15.3599 9.92775 15.4501 10.0709 15.6622 10.1663C15.7311 10.2035 15.8742 10.2618 16.0863 10.3413C16.2984 10.4208 16.4787 10.4898 16.6271 10.5746C17.1043 10.7761 17.6663 11.248 17.4967 11.969C17.4171 12.4409 17.1785 12.8121 16.7756 13.0772C16.3779 13.3423 15.8954 13.4748 15.3546 13.4748C14.4851 13.4695 13.8117 13.1673 13.3398 12.5523Z" fill="white"/>
<path d="M35.3649 15.1884H33.9946L31.3105 7.07959H33.0905L34.7292 12.5325L36.5657 7.07959H37.597L39.4758 12.5325L41.0863 7.07959H42.8663L40.1963 15.1884H38.826L37.1025 9.87669L35.3649 15.1884Z" fill="white"/>
<path d="M44.3918 15.1882H42.8379V9.21252H44.3353V10.0177C44.6885 9.36792 45.2394 9.05713 45.974 9.05713C46.2142 9.05713 46.4544 9.09951 46.6945 9.18427L46.5674 10.6676C46.299 10.5828 46.0729 10.5404 45.861 10.5404C45.409 10.5404 45.0558 10.6958 44.7874 10.9925C44.5331 11.2892 44.3918 11.7412 44.3918 12.3487V15.1882V15.1882Z" fill="white"/>
<path d="M48.7856 7.58862C48.7856 7.85703 48.7008 8.08306 48.5172 8.2667C48.3335 8.45035 48.1075 8.53511 47.8391 8.53511C47.5707 8.53511 47.3446 8.45035 47.161 8.2667C46.9773 8.08306 46.8926 7.85703 46.8926 7.58862C46.8926 7.32021 46.9773 7.09418 47.161 6.92466C47.3446 6.74101 47.5707 6.65625 47.8391 6.65625C48.1075 6.65625 48.3335 6.74101 48.5172 6.92466C48.7008 7.09418 48.7856 7.32021 48.7856 7.58862ZM48.6019 9.2132V15.1888H47.048V9.2132H48.6019V9.2132Z" fill="white"/>
<path d="M53.4057 13.6203L53.8719 14.8352C53.3775 15.1601 52.7842 15.3296 52.1061 15.3296C51.4139 15.3296 50.9053 15.1319 50.5521 14.7363C50.199 14.3408 50.0294 13.7474 50.0294 12.9705V10.4983H49.0547V9.19861H50.0436V7.07959H51.5834V9.19861H53.5611V10.4983H51.5834V12.8716C51.5834 13.5779 51.8659 13.9311 52.431 13.9311C52.7135 13.9311 53.0526 13.8322 53.4057 13.6203Z" fill="white"/>
<path d="M59.8752 12.0661C59.8752 12.2498 59.861 12.4758 59.8187 12.7442H55.3263C55.5524 13.5918 56.1316 14.0156 57.0639 14.0156C57.7561 14.0156 58.406 13.8179 58.9993 13.4082L59.6068 14.4959C58.8439 15.0469 57.9822 15.3153 56.9933 15.3153C55.9479 15.3153 55.1427 15.0186 54.5776 14.4112C54.0267 13.8179 53.7441 13.0691 53.7441 12.1933C53.7441 11.275 54.0267 10.5263 54.6059 9.94711C55.1851 9.35379 55.9338 9.05713 56.852 9.05713C57.7279 9.05713 58.4342 9.32554 58.9993 9.86236C59.5926 10.4133 59.8752 11.1479 59.8752 12.0661ZM56.8803 10.3427C56.4989 10.3427 56.1598 10.4557 55.8914 10.6817C55.623 10.9077 55.4394 11.2044 55.3405 11.6H58.3777C58.3071 11.2185 58.1376 10.9077 57.8692 10.6817C57.6008 10.4557 57.2758 10.3427 56.8803 10.3427Z" fill="white"/>
<path d="M62.4741 15.3439C61.4288 15.3439 60.6094 14.9624 60.002 14.1855L60.8213 13.2107C61.0332 13.465 61.2875 13.6628 61.5841 13.8182C61.8808 13.9736 62.1775 14.0442 62.4741 14.0442C62.7143 14.0442 62.8979 13.9877 63.0675 13.8747C63.2229 13.7617 63.3076 13.6204 63.3076 13.4509C63.3076 13.239 63.1663 13.0695 62.8838 12.9423C62.7991 12.8999 62.5589 12.8152 62.1775 12.6739C61.8384 12.5468 61.5842 12.4479 61.4146 12.349C60.7224 12.0241 60.3834 11.5014 60.3834 10.795C60.3834 10.2724 60.5812 9.84855 60.9908 9.49538C61.3864 9.15634 61.9373 8.98682 62.6154 8.98682C63.463 8.98682 64.1694 9.26935 64.7062 9.84855L63.9433 10.8516C63.5195 10.456 63.0675 10.2582 62.573 10.2582C62.3752 10.2582 62.2057 10.3006 62.0786 10.3995C61.9514 10.4984 61.8808 10.6114 61.8808 10.7527C61.8808 11.0069 62.0503 11.1906 62.4035 11.3036C63.1805 11.6003 63.6608 11.7839 63.8444 11.8828C64.5225 12.236 64.8474 12.7445 64.8474 13.3944C64.8474 13.9594 64.6214 14.4115 64.1835 14.7788C63.7597 15.1602 63.1946 15.3439 62.4741 15.3439Z" fill="white"/>
<path d="M65.1289 12.1942C65.1289 11.3042 65.4256 10.5696 66.033 9.96219C66.6405 9.35473 67.4033 9.04395 68.3357 9.04395C69.2681 9.04395 70.0309 9.35473 70.6384 9.96219C71.2317 10.5555 71.5425 11.3042 71.5425 12.1942C71.5425 13.0842 71.2458 13.8329 70.6384 14.4263C70.0309 15.0337 69.2681 15.3304 68.3357 15.3304C67.4033 15.3304 66.6405 15.0337 66.033 14.4263C65.4256 13.8329 65.1289 13.0842 65.1289 12.1942ZM67.149 13.4091C67.4598 13.734 67.8554 13.9036 68.3357 13.9036C68.8019 13.9036 69.1833 13.734 69.5082 13.4091C69.8331 13.0701 69.9885 12.6604 69.9885 12.1942C69.9885 11.728 69.8331 11.3184 69.5082 10.9934C69.1833 10.6685 68.8019 10.499 68.3357 10.499C67.8554 10.499 67.4598 10.6685 67.149 10.9934C66.8382 11.3184 66.6829 11.7139 66.6829 12.1942C66.6829 12.6745 66.8382 13.0842 67.149 13.4091Z" fill="white"/>
<path d="M73.7336 15.1882H72.1797V9.21252H73.6913V10.046C73.8467 9.74934 74.1009 9.50919 74.44 9.32554C74.779 9.14189 75.1463 9.05713 75.5701 9.05713C76.2199 9.05713 76.7709 9.26903 77.223 9.70696C77.675 10.1449 77.901 10.7523 77.901 11.5434V15.2023H76.3471V11.9672C76.3471 11.5011 76.2341 11.1338 76.0081 10.8795C75.782 10.6252 75.4712 10.4839 75.0898 10.4839C74.6801 10.4839 74.3552 10.6252 74.1009 10.9077C73.8467 11.1903 73.7195 11.5576 73.7195 11.9955V15.1882H73.7336Z" fill="white"/>
<path d="M80.5551 7.58862C80.5551 7.85703 80.4703 8.08306 80.2867 8.2667C80.103 8.45035 79.877 8.53511 79.6086 8.53511C79.3402 8.53511 79.1142 8.45035 78.9305 8.2667C78.7469 8.08306 78.6621 7.85703 78.6621 7.58862C78.6621 7.32021 78.7469 7.09418 78.9305 6.92466C79.1142 6.74101 79.3402 6.65625 79.6086 6.65625C79.877 6.65625 80.103 6.74101 80.2867 6.92466C80.4703 7.09418 80.5551 7.32021 80.5551 7.58862ZM80.3714 9.2132V15.1888H78.8175V9.2132H80.3714V9.2132Z" fill="white"/>
<path d="M84.1727 15.3299C83.2544 15.3299 82.4916 15.0333 81.8841 14.4541C81.2908 13.8749 80.9941 13.1262 80.9941 12.2079C80.9941 11.2897 81.2908 10.541 81.8983 9.96176C82.5057 9.36844 83.2827 9.07178 84.215 9.07178C84.8225 9.07178 85.3876 9.21305 85.882 9.50971C86.3764 9.80637 86.7579 10.216 86.998 10.7387L85.7549 11.4168C85.3876 10.8094 84.879 10.5127 84.2292 10.5127C83.7347 10.5127 83.3251 10.6822 83.0143 11.0071C82.6894 11.3321 82.534 11.7276 82.534 12.2079C82.534 12.7024 82.6894 13.112 83.0001 13.437C83.3251 13.7619 83.7206 13.9173 84.2009 13.9173C84.5117 13.9173 84.8084 13.8325 85.105 13.663C85.3876 13.4935 85.5995 13.2816 85.7266 13.0132L86.9839 13.7477C86.7296 14.2281 86.3482 14.6095 85.8538 14.9061C85.3452 15.1746 84.7801 15.3299 84.1727 15.3299Z" fill="white"/>
<defs>
<linearGradient id="paint0_linear_1097_425" x1="2.58371" y1="12.6478" x2="23.3038" y2="12.6478" gradientUnits="userSpaceOnUse">
<stop stop-color="#FFB3FF"/>
<stop offset="0.5335" stop-color="#FF76DF"/>
<stop offset="1" stop-color="#C239C6"/>
</linearGradient>
</defs>
</svg>
