<?xml version="1.0" encoding="UTF-8"?>
<svg width="104px" height="32px" viewBox="0 0 104 32" version="1.1" xmlns="http://www.w3.org/2000/svg" xmlns:xlink="http://www.w3.org/1999/xlink">
    <title>header/logo/32px</title>
    <g id="设计稿" stroke="none" stroke-width="1" fill="none" fill-rule="evenodd">
        <g id="UI交互说明" transform="translate(-60.000000, -110.000000)" fill-rule="nonzero">
            <g id="header/首页/默认" transform="translate(0.000000, 94.000000)">
                <g id="内容" transform="translate(60.000000, 6.000000)">
                    <g id="编组" transform="translate(-0.000000, 10.000000)">
                        <g id="编组-6备份-2" transform="translate(0.000000, 1.000000)">
                            <path d="M16.0229766,0.52887779 C18.7419144,1.63042076 20.5203324,4.26584333 20.5203324,7.19326568 C20.5259135,9.47173912 19.4434501,11.6166815 17.6053896,12.969293 L9.44575613,19.676433 C9.08441631,19.9735482 8.66034724,20.1529422 8.22333756,20.2153943 L8.22339677,2.096 L8.34228085,1.97938173 C10.3877902,0.0392049453 13.3917465,-0.537131534 16.0229766,0.52887779 Z" id="形状结合备份" fill="#F75FC6" transform="translate(14.371875, 10.107693) scale(-1, 1) translate(-14.371875, -10.107693) "></path>
                            <path d="M18.2213828,4.98546772 C21.6702368,6.38496903 23.9260824,9.7332518 23.9260824,13.4525179 C23.9331618,16.3472997 22.5601042,19.0724315 20.2286046,20.7909133 L9.87846556,29.3122797 C9.41413952,29.694689 8.86815356,29.9236048 8.30616765,30.0000564 L8.30623845,6.99853282 L8.44279699,6.86266829 C11.0381032,4.37016702 14.8683304,3.62484144 18.2213828,4.98546772 Z" id="形状结合" fill="#013AFF" opacity="0.8"></path>
                            <path d="M11.3173114,6.85823819 C13.8537701,7.88754883 15.5128311,10.3501568 15.5128311,13.085617 C15.5180377,15.2146824 14.5082228,17.2189728 12.7935221,18.4828885 L5.18151504,24.750216 C4.81972394,25.0481935 4.39052263,25.2194563 3.95133588,25.2649048 L3.95142983,8.38597318 C3.95572565,8.39036221 3.96001645,8.39475806 3.96430222,8.39916072 C5.8731158,6.43828314 8.78085264,5.82892755 11.3173114,6.85823819 Z" id="形状结合" fill="#00E4FF" opacity="0.8" transform="translate(9.731783, 15.814505) rotate(-330.000000) translate(-9.731783, -15.814505) "></path>
                        </g>
                        <path d="M32.8364959,23.9942976 C33.2680928,22.9202842 33.5953272,21.4926322 33.8181991,19.7113417 C33.9971208,18.2443965 34.0671184,16.6202787 34.028192,14.8389881 L34.011749,9.51476311 L47.0493083,9.51476311 L47.0878439,8.08056227 L41.2170152,8.08056227 L40.6268778,7 L38.6044853,7 L39.1749878,8.08056227 L33.5594126,8.08056227 C33.0619957,8.08056227 32.7026245,8.20499066 32.4812992,8.45384742 C32.2599738,8.70270419 32.1461313,9.09563593 32.1397716,9.63264263 L32.204667,14.5049962 C32.2158534,16.3910685 32.1272423,18.0839494 31.9388338,19.5836389 C31.7504253,21.0833283 31.4374807,22.4029241 31,23.5424261 L32.8364959,23.9942976 Z M35.1628697,14.6228757 C35.7217695,14.2299439 36.3557248,13.6863884 37.0647354,12.992209 L37.0479965,14.4460564 L38.4617078,14.4460564 L38.480787,12.8350363 L39.8301992,13.8566588 L40.4747188,12.9332692 L39.5677261,12.3635182 C39.3845862,12.2456387 39.0836965,12.0688194 38.6650571,11.8330604 L40.3143869,11.8330604 L40.3570676,10.614972 L38.5113891,10.614972 L38.5230905,9.8291085 L37.1093792,9.8291085 L37.0976778,10.614972 L34.800397,10.614972 L34.7773511,11.8330604 L36.5248553,11.8330604 C35.7983121,12.6058261 35.018087,13.2476146 34.1841799,13.7584259 L35.1628697,14.6228757 Z M47.4575362,13.5816066 C46.9124402,13.2672612 46.4520386,12.9791113 46.0763314,12.7171568 C45.7006242,12.4552023 45.310776,12.1539546 44.9067866,11.8134138 L46.8899093,11.8134138 L46.8954822,10.614972 L44.500027,10.614972 L44.5117284,9.8291085 L43.117652,9.8291085 L43.1059506,10.614972 L41.0639233,10.614972 L41.0583504,11.8134138 L42.6291407,11.8134138 C42.3335995,12.1015637 42.0344552,12.3569693 41.7317079,12.5796307 C41.4289606,12.802292 41.0083446,13.0838931 40.4698598,13.4244339 L41.4638608,14.2495905 C41.5235456,14.1971996 41.7313315,14.0334781 42.0872185,13.7584259 C42.4431056,13.4833736 42.7739235,13.1886748 43.0796722,12.8743295 L43.0562694,14.4460564 L44.4307108,14.4460564 L44.4586158,12.7368034 C45.0615984,13.3392987 45.7802285,13.9221474 46.614506,14.4853496 L47.4575362,13.5816066 Z M35.3648931,24.1318237 C36.552228,23.6210124 37.4660563,23.1822387 38.106378,22.8155024 C39.1396352,22.2130071 39.9300679,21.5450231 40.4776759,20.8115505 L40.4650822,22.4815104 C40.4631651,22.9399308 40.5766243,23.2870205 40.80546,23.5227795 C41.0342956,23.7585386 41.3581521,23.8764181 41.7770296,23.8764181 L44.8400706,23.8764181 C46.1359726,23.8764181 47.1978162,23.7716363 48.0256015,23.5620727 L48.0227055,22.1082253 C47.5673218,22.2523002 47.0879795,22.357082 46.5846788,22.4225707 C46.081378,22.4880593 45.4901104,22.5273524 44.8108758,22.5404502 L42.2779765,22.5404502 C42.1208974,22.5404502 42.0351518,22.4749616 42.0207397,22.3439843 L42.0295654,22.2457514 L42.0490015,20.2810927 L40.831639,20.2810927 C40.9423612,20.0977245 41.0188579,19.9601984 41.061129,19.8685144 L46.4999904,19.8685144 L46.5887629,16.2142492 C46.5852721,15.3497994 46.0533849,14.9175745 44.9931015,14.9175745 L40.6537933,14.9175745 L41.0299101,14.0531247 L39.3805803,14.0531247 L38.9651938,14.9175745 L36.9231664,14.9175745 C36.4126596,14.9175745 36.0344039,15.0190819 35.7883994,15.2220966 C35.542395,15.4251113 35.4126098,15.7623777 35.399044,16.2338958 L35.3277445,19.8685144 L39.2154504,19.8685144 C38.7144373,20.549596 37.9953381,21.1520914 37.0581529,21.6760004 C36.3057868,22.0951275 35.3257883,22.5273524 34.1181574,22.9726751 L35.3648931,24.1318237 Z M40.0278379,16.9018798 L37.0040666,16.9018798 L37.0179298,16.1356629 L40.0220662,16.1356629 L40.0278379,16.9018798 Z M44.8972877,16.9018798 L41.6378979,16.9018798 L41.6517611,16.1356629 L44.9307858,16.1356629 L44.8972877,16.9018798 Z M36.9869708,18.7093657 L36.9855228,17.982442 L39.9700243,17.982442 C39.9493714,18.270592 39.8974944,18.5128999 39.8143933,18.7093657 L36.9869708,18.7093657 Z M44.8605571,18.7093657 L41.4637231,18.7093657 C41.5338532,18.3950204 41.5791853,18.1527125 41.5997192,17.982442 L44.8787439,17.982442 L44.8605571,18.7093657 Z M47.3877254,22.2261048 L46.287795,20.4382654 L45.1097023,20.4382654 L45.4494453,21.027663 C45.2836,21.0669562 45.0188597,21.0997005 44.6552244,21.1258959 L43.9177463,21.2044823 C44.2016388,20.9294301 44.5212575,20.5626938 44.8766025,20.1042734 L43.6199702,20.1042734 C43.5966728,20.1304689 43.3906587,20.3400324 43.0019279,20.7329642 L42.6656162,21.0669562 C42.4880032,21.2372266 42.4100059,21.4205947 42.4316241,21.6170606 C42.4402714,21.6956469 42.467833,21.7676844 42.5143088,21.833173 C42.685681,22.0820298 42.9539054,22.1999093 43.3189819,22.1868116 C44.5538769,22.1082253 45.4404479,22.0165412 45.9786947,21.9117594 L46.170363,22.2261048 L47.3877254,22.2261048 Z M66.4864666,14.5835825 L66.5318445,12.8546829 L62.3103457,12.8546829 L62.9957411,10.3399198 L65.3126568,10.3399198 L65.3666821,8.68960647 L59.2406,8.68960647 L58.6292012,7.05893976 L56.567539,7.05893976 L57.1789377,8.68960647 L51.1902998,8.68960647 L51.1559094,10.3399198 L53.7280785,10.3399198 L54.5545687,12.8546829 L50.2152605,12.8546829 L50.1698825,14.5835825 L66.4864666,14.5835825 Z M60.307588,12.8546829 L56.439517,12.8546829 L55.6326617,10.3399198 L60.9929835,10.3399198 L60.307588,12.8546829 Z M64.6488029,23.9353578 L64.6074887,17.3144581 C64.6133725,17.2489695 64.6091084,17.1507365 64.5946962,17.0197593 C64.5514597,16.6268275 64.3935972,16.3223054 64.1211086,16.106193 C63.8486201,15.8900805 63.4963922,15.7820243 63.0644249,15.7820243 L53.7378576,15.7820243 C53.3189802,15.7820243 52.9752508,15.8999038 52.7066695,16.1356629 C52.4380883,16.3714219 52.299236,16.6857673 52.2901129,17.078699 L52.2591945,23.9353578 L64.6488029,23.9353578 Z M62.6160959,19.0237111 L54.2516377,19.0237111 L54.2532438,17.4323376 L62.617702,17.4323376 L62.6160959,19.0237111 Z M62.6608008,22.2850445 L54.2767076,22.2850445 L54.2675046,20.5954381 L62.6319629,20.5954381 L62.6608008,22.2850445 Z M84.6183617,23.4834863 L84.611499,21.6367072 L77.2876893,21.6367072 L77.4295338,10.4381527 L83.1825532,10.4381527 L83.1974872,8.61102012 L69.1781839,8.61102012 L69.16325,10.4381527 L75.3286018,10.4381527 L75.1867573,21.6367072 L68.8054218,21.6367072 L68.7926496,23.4834863 L84.6183617,23.4834863 Z M94.3164934,23.9550044 C95.8475109,21.5712186 96.7862954,18.7421101 97.1328469,15.4676789 L100.667125,15.4676789 C100.695236,16.4369105 100.70071,17.4978262 100.683548,18.650426 C100.641409,20.0518825 100.596745,21.073505 100.549555,21.7152935 C100.529021,21.8855639 100.414035,21.9706992 100.204596,21.9706992 L100.067152,21.9706992 C99.0347277,21.7480378 98.184121,21.5122788 97.5153318,21.263422 L97.4960742,23.0512614 C97.8915352,23.1953364 98.3989812,23.3459602 99.018412,23.5031329 C99.584042,23.6472079 100.100254,23.7585386 100.567049,23.8371249 C100.754631,23.8764181 100.920417,23.8960647 101.064406,23.8960647 C101.836711,23.8960647 102.259668,23.4572909 102.333275,22.5797433 C102.432097,21.21758 102.493573,20.1108223 102.517703,19.2594702 C102.54543,17.7270364 102.553885,16.5547901 102.543069,15.7427311 C102.547512,15.6641448 102.541086,15.5462653 102.523791,15.3890926 C102.464701,14.8520859 102.278226,14.4362331 101.964365,14.1415343 C101.650505,13.8468355 101.212141,13.6994861 100.649275,13.6994861 L97.2524408,13.6994861 L97.3378023,11.2633093 L103.287171,11.2633093 L103.326063,9.47546994 L99.4383571,9.47546994 L98.4457837,7.23575904 L96.5019307,7.23575904 L97.4552343,9.47546994 L93.2730052,9.47546994 L93.2341127,11.2633093 L95.4332191,11.2633093 L95.3559695,14.3085303 C95.2465831,16.0505277 94.9467913,17.6680966 94.4565941,19.1612372 C93.9766043,20.6281824 93.2450236,22.0689321 92.261852,23.4834863 L94.3164934,23.9550044 Z M86.9034932,21.5384742 C88.1022388,21.2503243 89.1460673,20.981821 90.0349785,20.7329642 C91.29485,20.4055211 92.3547103,20.1042734 93.2145592,19.8292212 L93.2120202,18.0217352 C92.4263871,18.2574942 91.6385922,18.4736067 90.8486354,18.6700726 L90.9240598,13.1100885 L92.985722,13.1100885 L93.0071415,11.3418957 L90.9454792,11.3418957 L90.9888535,7.27505222 L89.1431749,7.27505222 L89.0998007,11.3418957 L86.8614245,11.3418957 L86.8400051,13.1100885 L89.0783812,13.1100885 L89.0155709,19.1415907 C88.5325661,19.2725679 88.1688714,19.3577031 87.9244865,19.3969963 L86.9272529,19.6131087 L86.9034932,21.5384742 Z" id="魔音工坊" stroke="#001733" stroke-width="0.1" fill="#001633"></path>
                    </g>
                </g>
            </g>
        </g>
    </g>
</svg>